solid OpenSCAD_Model
  facet normal 0.707107 -0.707107 0
    outer loop
      vertex 18.9151 18.9151 15.6
      vertex 18.9151 18.9151 0
      vertex 20.3293 20.3293 0
    endloop
  endfacet
  facet normal 0.707107 -0.707107 0
    outer loop
      vertex 20.3293 20.3293 15.6
      vertex 18.9151 18.9151 15.6
      vertex 20.3293 20.3293 0
    endloop
  endfacet
  facet normal 0.866019 -0.500011 0
    outer loop
      vertex -14.375 -24.8982 8.88178e-16
      vertex -13.375 -23.1662 8.88178e-16
      vertex -13.375 -23.1662 15.6
    endloop
  endfacet
  facet normal 0.866019 -0.500011 0
    outer loop
      vertex -14.375 -24.8982 8.88178e-16
      vertex -13.375 -23.1662 15.6
      vertex -14.375 -24.8982 15.6
    endloop
  endfacet
  facet normal 0 0 1
    outer loop
      vertex 20.3293 20.3293 15.6
      vertex 18.0564 22.3725 15.6
      vertex 18.9151 18.9151 15.6
    endloop
  endfacet
  facet normal 0 0 1
    outer loop
      vertex 18.0564 22.3725 15.6
      vertex 16.8003 20.8162 15.6
      vertex 18.9151 18.9151 15.6
    endloop
  endfacet
  facet normal 0.668529 0.743686 -0
    outer loop
      vertex 20.3293 20.3293 0
      vertex 18.0564 22.3725 0
      vertex 20.3293 20.3293 15.6
    endloop
  endfacet
  facet normal 0.668529 0.743686 -0
    outer loop
      vertex 18.0564 22.3725 0
      vertex 18.0564 22.3725 15.6
      vertex 20.3293 20.3293 15.6
    endloop
  endfacet
  facet normal 0 0 -1
    outer loop
      vertex 18.9151 18.9151 0
      vertex 16.8003 20.8162 0
      vertex 20.3293 20.3293 0
    endloop
  endfacet
  facet normal 0 0 -1
    outer loop
      vertex 16.8003 20.8162 0
      vertex 18.0564 22.3725 0
      vertex 20.3293 20.3293 0
    endloop
  endfacet
  facet normal -0.668533 -0.743682 -0
    outer loop
      vertex 18.9151 18.9151 15.6
      vertex 16.8003 20.8162 15.6
      vertex 18.9151 18.9151 0
    endloop
  endfacet
  facet normal -0.668533 -0.743682 -0
    outer loop
      vertex 16.8003 20.8162 15.6
      vertex 16.8003 20.8162 0
      vertex 18.9151 18.9151 0
    endloop
  endfacet
  facet normal 0 0 1
    outer loop
      vertex 18.0564 22.3725 15.6
      vertex 15.5794 24.1629 15.6
      vertex 16.8003 20.8162 15.6
    endloop
  endfacet
  facet normal 0 0 1
    outer loop
      vertex 15.5794 24.1629 15.6
      vertex 14.4956 22.482 15.6
      vertex 16.8003 20.8162 15.6
    endloop
  endfacet
  facet normal 0.585803 0.810453 -0
    outer loop
      vertex 18.0564 22.3725 0
      vertex 15.5794 24.1629 0
      vertex 18.0564 22.3725 15.6
    endloop
  endfacet
  facet normal 0.585803 0.810453 -0
    outer loop
      vertex 15.5794 24.1629 0
      vertex 15.5794 24.1629 15.6
      vertex 18.0564 22.3725 15.6
    endloop
  endfacet
  facet normal 0 0 -1
    outer loop
      vertex 16.8003 20.8162 0
      vertex 14.4956 22.482 0
      vertex 18.0564 22.3725 0
    endloop
  endfacet
  facet normal 0 0 -1
    outer loop
      vertex 14.4956 22.482 0
      vertex 15.5794 24.1629 0
      vertex 18.0564 22.3725 0
    endloop
  endfacet
  facet normal -0.58579 -0.810463 -0
    outer loop
      vertex 16.8003 20.8162 15.6
      vertex 14.4956 22.482 15.6
      vertex 16.8003 20.8162 0
    endloop
  endfacet
  facet normal -0.58579 -0.810463 -0
    outer loop
      vertex 14.4956 22.482 15.6
      vertex 14.4956 22.482 0
      vertex 16.8003 20.8162 0
    endloop
  endfacet
  facet normal 0 0 1
    outer loop
      vertex 15.5794 24.1629 15.6
      vertex 12.9263 25.6802 15.6
      vertex 14.4956 22.482 15.6
    endloop
  endfacet
  facet normal 0 0 1
    outer loop
      vertex 12.9263 25.6802 15.6
      vertex 12.0271 23.8937 15.6
      vertex 14.4956 22.482 15.6
    endloop
  endfacet
  facet normal 0.496445 0.868068 -0
    outer loop
      vertex 15.5794 24.1629 0
      vertex 12.9263 25.6802 0
      vertex 15.5794 24.1629 15.6
    endloop
  endfacet
  facet normal 0.496445 0.868068 -0
    outer loop
      vertex 12.9263 25.6802 0
      vertex 12.9263 25.6802 15.6
      vertex 15.5794 24.1629 15.6
    endloop
  endfacet
  facet normal 0 0 -1
    outer loop
      vertex 14.4956 22.482 0
      vertex 12.0271 23.8937 0
      vertex 15.5794 24.1629 0
    endloop
  endfacet
  facet normal 0 0 -1
    outer loop
      vertex 12.0271 23.8937 0
      vertex 12.9263 25.6802 0
      vertex 15.5794 24.1629 0
    endloop
  endfacet
  facet normal -0.496438 -0.868072 -0
    outer loop
      vertex 14.4956 22.482 15.6
      vertex 12.0271 23.8937 15.6
      vertex 14.4956 22.482 0
    endloop
  endfacet
  facet normal -0.496438 -0.868072 -0
    outer loop
      vertex 12.0271 23.8937 15.6
      vertex 12.0271 23.8937 0
      vertex 14.4956 22.482 0
    endloop
  endfacet
  facet normal 0 0 1
    outer loop
      vertex 12.9263 25.6802 15.6
      vertex 10.1272 26.9073 15.6
      vertex 12.0271 23.8937 15.6
    endloop
  endfacet
  facet normal 0 0 1
    outer loop
      vertex 10.1272 26.9073 15.6
      vertex 9.42269 25.0355 15.6
      vertex 12.0271 23.8937 15.6
    endloop
  endfacet
  facet normal 0.401504 0.915857 -0
    outer loop
      vertex 12.9263 25.6802 0
      vertex 10.1272 26.9073 0
      vertex 12.9263 25.6802 15.6
    endloop
  endfacet
  facet normal 0.401504 0.915857 -0
    outer loop
      vertex 10.1272 26.9073 0
      vertex 10.1272 26.9073 15.6
      vertex 12.9263 25.6802 15.6
    endloop
  endfacet
  facet normal 0 0 -1
    outer loop
      vertex 12.0271 23.8937 0
      vertex 9.42269 25.0355 0
      vertex 12.9263 25.6802 0
    endloop
  endfacet
  facet normal 0 0 -1
    outer loop
      vertex 9.42269 25.0355 0
      vertex 10.1272 26.9073 0
      vertex 12.9263 25.6802 0
    endloop
  endfacet
  facet normal -0.401518 -0.915851 -0
    outer loop
      vertex 12.0271 23.8937 15.6
      vertex 9.42269 25.0355 15.6
      vertex 12.0271 23.8937 0
    endloop
  endfacet
  facet normal -0.401518 -0.915851 -0
    outer loop
      vertex 9.42269 25.0355 15.6
      vertex 9.42269 25.0355 0
      vertex 12.0271 23.8937 0
    endloop
  endfacet
  facet normal 0 0 1
    outer loop
      vertex 10.1272 26.9073 15.6
      vertex 7.21361 27.8303 15.6
      vertex 9.42269 25.0355 15.6
    endloop
  endfacet
  facet normal 0 0 1
    outer loop
      vertex 7.21361 27.8303 15.6
      vertex 6.71179 25.8943 15.6
      vertex 9.42269 25.0355 15.6
    endloop
  endfacet
  facet normal 0.302 0.953308 -0
    outer loop
      vertex 10.1272 26.9073 0
      vertex 7.21361 27.8303 0
      vertex 10.1272 26.9073 15.6
    endloop
  endfacet
  facet normal 0.302 0.953308 -0
    outer loop
      vertex 7.21361 27.8303 0
      vertex 7.21361 27.8303 15.6
      vertex 10.1272 26.9073 15.6
    endloop
  endfacet
  facet normal 0 0 -1
    outer loop
      vertex 9.42269 25.0355 0
      vertex 6.71179 25.8943 0
      vertex 10.1272 26.9073 0
    endloop
  endfacet
  facet normal 0 0 -1
    outer loop
      vertex 6.71179 25.8943 0
      vertex 7.21361 27.8303 0
      vertex 10.1272 26.9073 0
    endloop
  endfacet
  facet normal -0.302003 -0.953307 -0
    outer loop
      vertex 9.42269 25.0355 15.6
      vertex 6.71179 25.8943 15.6
      vertex 9.42269 25.0355 0
    endloop
  endfacet
  facet normal -0.302003 -0.953307 -0
    outer loop
      vertex 6.71179 25.8943 15.6
      vertex 6.71179 25.8943 0
      vertex 9.42269 25.0355 0
    endloop
  endfacet
  facet normal 0 0 1
    outer loop
      vertex 7.21361 27.8303 15.6
      vertex 4.2185 28.4388 15.6
      vertex 6.71179 25.8943 15.6
    endloop
  endfacet
  facet normal 0 0 1
    outer loop
      vertex 4.2185 28.4388 15.6
      vertex 3.92504 26.4605 15.6
      vertex 6.71179 25.8943 15.6
    endloop
  endfacet
  facet normal 0.199097 0.97998 -0
    outer loop
      vertex 7.21361 27.8303 0
      vertex 4.2185 28.4388 0
      vertex 7.21361 27.8303 15.6
    endloop
  endfacet
  facet normal 0.199097 0.97998 -0
    outer loop
      vertex 4.2185 28.4388 0
      vertex 4.2185 28.4388 15.6
      vertex 7.21361 27.8303 15.6
    endloop
  endfacet
  facet normal 0 0 -1
    outer loop
      vertex 6.71179 25.8943 0
      vertex 3.92504 26.4605 0
      vertex 7.21361 27.8303 0
    endloop
  endfacet
  facet normal 0 0 -1
    outer loop
      vertex 3.92504 26.4605 0
      vertex 4.2185 28.4388 0
      vertex 7.21361 27.8303 0
    endloop
  endfacet
  facet normal -0.199108 -0.979978 -0
    outer loop
      vertex 6.71179 25.8943 15.6
      vertex 3.92504 26.4605 15.6
      vertex 6.71179 25.8943 0
    endloop
  endfacet
  facet normal -0.199108 -0.979978 -0
    outer loop
      vertex 3.92504 26.4605 15.6
      vertex 3.92504 26.4605 0
      vertex 6.71179 25.8943 0
    endloop
  endfacet
  facet normal 0 0 1
    outer loop
      vertex 4.2185 28.4388 15.6
      vertex 1.17572 28.726 15.6
      vertex 3.92504 26.4605 15.6
    endloop
  endfacet
  facet normal 0 0 1
    outer loop
      vertex 1.17572 28.726 15.6
      vertex 1.09393 26.7276 15.6
      vertex 3.92504 26.4605 15.6
    endloop
  endfacet
  facet normal 0.0939697 0.995575 -0
    outer loop
      vertex 4.2185 28.4388 0
      vertex 1.17572 28.726 0
      vertex 4.2185 28.4388 15.6
    endloop
  endfacet
  facet normal 0.0939697 0.995575 -0
    outer loop
      vertex 1.17572 28.726 0
      vertex 1.17572 28.726 15.6
      vertex 4.2185 28.4388 15.6
    endloop
  endfacet
  facet normal 0 0 -1
    outer loop
      vertex 3.92504 26.4605 0
      vertex 1.09393 26.7276 0
      vertex 4.2185 28.4388 0
    endloop
  endfacet
  facet normal 0 0 -1
    outer loop
      vertex 1.09393 26.7276 0
      vertex 1.17572 28.726 0
      vertex 4.2185 28.4388 0
    endloop
  endfacet
  facet normal -0.0939275 -0.995579 -0
    outer loop
      vertex 3.92504 26.4605 15.6
      vertex 1.09393 26.7276 15.6
      vertex 3.92504 26.4605 0
    endloop
  endfacet
  facet normal -0.0939275 -0.995579 -0
    outer loop
      vertex 1.09393 26.7276 15.6
      vertex 1.09393 26.7276 0
      vertex 3.92504 26.4605 0
    endloop
  endfacet
  facet normal 0 0 1
    outer loop
      vertex 1.17572 28.726 15.6
      vertex -1.88034 28.6884 15.6
      vertex 1.09393 26.7276 15.6
    endloop
  endfacet
  facet normal 0 0 1
    outer loop
      vertex -1.88034 28.6884 15.6
      vertex -1.74953 26.6927 15.6
      vertex 1.09393 26.7276 15.6
    endloop
  endfacet
  facet normal -0.0123025 0.999924 0
    outer loop
      vertex 1.17572 28.726 0
      vertex -1.88034 28.6884 0
      vertex 1.17572 28.726 15.6
    endloop
  endfacet
  facet normal -0.0123025 0.999924 0
    outer loop
      vertex -1.88034 28.6884 0
      vertex -1.88034 28.6884 15.6
      vertex 1.17572 28.726 15.6
    endloop
  endfacet
  facet normal -0 0 -1
    outer loop
      vertex 1.09393 26.7276 0
      vertex -1.74953 26.6927 0
      vertex 1.17572 28.726 0
    endloop
  endfacet
  facet normal 0 0 -1
    outer loop
      vertex -1.74953 26.6927 0
      vertex -1.88034 28.6884 0
      vertex 1.17572 28.726 0
    endloop
  endfacet
  facet normal 0.0122729 -0.999925 0
    outer loop
      vertex 1.09393 26.7276 15.6
      vertex -1.74953 26.6927 15.6
      vertex 1.09393 26.7276 0
    endloop
  endfacet
  facet normal 0.0122729 -0.999925 0
    outer loop
      vertex -1.74953 26.6927 15.6
      vertex -1.74953 26.6927 0
      vertex 1.09393 26.7276 0
    endloop
  endfacet
  facet normal 0 0 1
    outer loop
      vertex -1.88034 28.6884 15.6
      vertex -4.91515 28.3267 15.6
      vertex -1.74953 26.6927 15.6
    endloop
  endfacet
  facet normal 0 0 1
    outer loop
      vertex -4.91515 28.3267 15.6
      vertex -4.57323 26.3562 15.6
      vertex -1.74953 26.6927 15.6
    endloop
  endfacet
  facet normal -0.118346 0.992972 0
    outer loop
      vertex -1.88034 28.6884 0
      vertex -4.91515 28.3267 0
      vertex -1.88034 28.6884 15.6
    endloop
  endfacet
  facet normal -0.118346 0.992972 0
    outer loop
      vertex -4.91515 28.3267 0
      vertex -4.91515 28.3267 15.6
      vertex -1.88034 28.6884 15.6
    endloop
  endfacet
  facet normal -0 0 -1
    outer loop
      vertex -1.74953 26.6927 0
      vertex -4.57323 26.3562 0
      vertex -1.88034 28.6884 0
    endloop
  endfacet
  facet normal 0 0 -1
    outer loop
      vertex -4.57323 26.3562 0
      vertex -4.91515 28.3267 0
      vertex -1.88034 28.6884 0
    endloop
  endfacet
  facet normal 0.118333 -0.992974 0
    outer loop
      vertex -1.74953 26.6927 15.6
      vertex -4.57323 26.3562 15.6
      vertex -1.74953 26.6927 0
    endloop
  endfacet
  facet normal 0.118333 -0.992974 0
    outer loop
      vertex -4.57323 26.3562 15.6
      vertex -4.57323 26.3562 0
      vertex -1.74953 26.6927 0
    endloop
  endfacet
  facet normal 0 0 1
    outer loop
      vertex -4.91515 28.3267 15.6
      vertex -7.89442 27.6449 15.6
      vertex -4.57323 26.3562 15.6
    endloop
  endfacet
  facet normal 0 0 1
    outer loop
      vertex -7.89442 27.6449 15.6
      vertex -7.34525 25.7218 15.6
      vertex -4.57323 26.3562 15.6
    endloop
  endfacet
  facet normal -0.223081 0.9748 0
    outer loop
      vertex -4.91515 28.3267 0
      vertex -7.89442 27.6449 0
      vertex -4.91515 28.3267 15.6
    endloop
  endfacet
  facet normal -0.223081 0.9748 0
    outer loop
      vertex -7.89442 27.6449 0
      vertex -7.89442 27.6449 15.6
      vertex -4.91515 28.3267 15.6
    endloop
  endfacet
  facet normal -0 0 -1
    outer loop
      vertex -4.57323 26.3562 0
      vertex -7.34525 25.7218 0
      vertex -4.91515 28.3267 0
    endloop
  endfacet
  facet normal 0 0 -1
    outer loop
      vertex -7.34525 25.7218 0
      vertex -7.89442 27.6449 0
      vertex -4.91515 28.3267 0
    endloop
  endfacet
  facet normal 0.223091 -0.974798 0
    outer loop
      vertex -4.57323 26.3562 15.6
      vertex -7.34525 25.7218 15.6
      vertex -4.57323 26.3562 0
    endloop
  endfacet
  facet normal 0.223091 -0.974798 0
    outer loop
      vertex -7.34525 25.7218 15.6
      vertex -7.34525 25.7218 0
      vertex -4.57323 26.3562 0
    endloop
  endfacet
  facet normal 0 0 1
    outer loop
      vertex -7.89442 27.6449 15.6
      vertex -10.7845 26.6507 15.6
      vertex -7.34525 25.7218 15.6
    endloop
  endfacet
  facet normal 0 0 1
    outer loop
      vertex -10.7845 26.6507 15.6
      vertex -10.0343 24.7967 15.6
      vertex -7.34525 25.7218 15.6
    endloop
  endfacet
  facet normal -0.325295 0.945613 0
    outer loop
      vertex -7.89442 27.6449 0
      vertex -10.7845 26.6507 0
      vertex -7.89442 27.6449 15.6
    endloop
  endfacet
  facet normal -0.325295 0.945613 0
    outer loop
      vertex -10.7845 26.6507 0
      vertex -10.7845 26.6507 15.6
      vertex -7.89442 27.6449 15.6
    endloop
  endfacet
  facet normal -0 0 -1
    outer loop
      vertex -7.34525 25.7218 0
      vertex -10.0343 24.7967 0
      vertex -7.89442 27.6449 0
    endloop
  endfacet
  facet normal 0 0 -1
    outer loop
      vertex -10.0343 24.7967 0
      vertex -10.7845 26.6507 0
      vertex -7.89442 27.6449 0
    endloop
  endfacet
  facet normal 0.325312 -0.945607 0
    outer loop
      vertex -7.34525 25.7218 15.6
      vertex -10.0343 24.7967 15.6
      vertex -7.34525 25.7218 0
    endloop
  endfacet
  facet normal 0.325312 -0.945607 0
    outer loop
      vertex -10.0343 24.7967 15.6
      vertex -10.0343 24.7967 0
      vertex -7.34525 25.7218 0
    endloop
  endfacet
  facet normal 0 0 1
    outer loop
      vertex -10.7845 26.6507 15.6
      vertex -13.5527 25.3552 15.6
      vertex -10.0343 24.7967 15.6
    endloop
  endfacet
  facet normal 0 0 1
    outer loop
      vertex -13.5527 25.3552 15.6
      vertex -12.6099 23.5914 15.6
      vertex -10.0343 24.7967 15.6
    endloop
  endfacet
  facet normal -0.423872 0.905722 0
    outer loop
      vertex -10.7845 26.6507 0
      vertex -13.5527 25.3552 0
      vertex -10.7845 26.6507 15.6
    endloop
  endfacet
  facet normal -0.423872 0.905722 0
    outer loop
      vertex -13.5527 25.3552 0
      vertex -13.5527 25.3552 15.6
      vertex -10.7845 26.6507 15.6
    endloop
  endfacet
  facet normal -0 0 -1
    outer loop
      vertex -10.0343 24.7967 0
      vertex -12.6099 23.5914 0
      vertex -10.7845 26.6507 0
    endloop
  endfacet
  facet normal 0 0 -1
    outer loop
      vertex -12.6099 23.5914 0
      vertex -13.5527 25.3552 0
      vertex -10.7845 26.6507 0
    endloop
  endfacet
  facet normal 0.423854 -0.905731 0
    outer loop
      vertex -10.0343 24.7967 15.6
      vertex -12.6099 23.5914 15.6
      vertex -10.0343 24.7967 0
    endloop
  endfacet
  facet normal 0.423854 -0.905731 0
    outer loop
      vertex -12.6099 23.5914 15.6
      vertex -12.6099 23.5914 0
      vertex -10.0343 24.7967 0
    endloop
  endfacet
  facet normal 0 0 1
    outer loop
      vertex -13.5527 25.3552 15.6
      vertex -16.1677 23.7733 15.6
      vertex -12.6099 23.5914 15.6
    endloop
  endfacet
  facet normal 0 0 1
    outer loop
      vertex -16.1677 23.7733 15.6
      vertex -15.043 22.1195 15.6
      vertex -12.6099 23.5914 15.6
    endloop
  endfacet
  facet normal -0.517596 0.855625 0
    outer loop
      vertex -13.5527 25.3552 0
      vertex -16.1677 23.7733 0
      vertex -13.5527 25.3552 15.6
    endloop
  endfacet
  facet normal -0.517596 0.855625 0
    outer loop
      vertex -16.1677 23.7733 0
      vertex -16.1677 23.7733 15.6
      vertex -13.5527 25.3552 15.6
    endloop
  endfacet
  facet normal -0 0 -1
    outer loop
      vertex -12.6099 23.5914 0
      vertex -15.043 22.1195 0
      vertex -13.5527 25.3552 0
    endloop
  endfacet
  facet normal 0 0 -1
    outer loop
      vertex -15.043 22.1195 0
      vertex -16.1677 23.7733 0
      vertex -13.5527 25.3552 0
    endloop
  endfacet
  facet normal 0.517606 -0.855619 0
    outer loop
      vertex -12.6099 23.5914 15.6
      vertex -15.043 22.1195 15.6
      vertex -12.6099 23.5914 0
    endloop
  endfacet
  facet normal 0.517606 -0.855619 0
    outer loop
      vertex -15.043 22.1195 15.6
      vertex -15.043 22.1195 0
      vertex -12.6099 23.5914 0
    endloop
  endfacet
  facet normal 0 0 1
    outer loop
      vertex -16.1677 23.7733 15.6
      vertex -18.6 21.9227 15.6
      vertex -15.043 22.1195 15.6
    endloop
  endfacet
  facet normal -0 0 1
    outer loop
      vertex -18.6 21.9227 15.6
      vertex -17.3061 20.3976 15.6
      vertex -15.043 22.1195 15.6
    endloop
  endfacet
  facet normal -0.605509 0.795839 0
    outer loop
      vertex -16.1677 23.7733 0
      vertex -18.6 21.9227 0
      vertex -16.1677 23.7733 15.6
    endloop
  endfacet
  facet normal -0.605509 0.795839 0
    outer loop
      vertex -18.6 21.9227 0
      vertex -18.6 21.9227 15.6
      vertex -16.1677 23.7733 15.6
    endloop
  endfacet
  facet normal -0 0 -1
    outer loop
      vertex -15.043 22.1195 0
      vertex -17.3061 20.3976 0
      vertex -16.1677 23.7733 0
    endloop
  endfacet
  facet normal 0 0 -1
    outer loop
      vertex -17.3061 20.3976 0
      vertex -18.6 21.9227 0
      vertex -16.1677 23.7733 0
    endloop
  endfacet
  facet normal 0.605517 -0.795833 0
    outer loop
      vertex -15.043 22.1195 15.6
      vertex -17.3061 20.3976 15.6
      vertex -15.043 22.1195 0
    endloop
  endfacet
  facet normal 0.605517 -0.795833 0
    outer loop
      vertex -17.3061 20.3976 15.6
      vertex -17.3061 20.3976 0
      vertex -15.043 22.1195 0
    endloop
  endfacet
  facet normal 0 0 1
    outer loop
      vertex -18.6 21.9227 15.6
      vertex -20.8221 19.8243 15.6
      vertex -17.3061 20.3976 15.6
    endloop
  endfacet
  facet normal -0 0 1
    outer loop
      vertex -20.8221 19.8243 15.6
      vertex -19.3736 18.4452 15.6
      vertex -17.3061 20.3976 15.6
    endloop
  endfacet
  facet normal -0.68658 0.727054 0
    outer loop
      vertex -18.6 21.9227 0
      vertex -20.8221 19.8243 0
      vertex -18.6 21.9227 15.6
    endloop
  endfacet
  facet normal -0.68658 0.727054 0
    outer loop
      vertex -20.8221 19.8243 0
      vertex -20.8221 19.8243 15.6
      vertex -18.6 21.9227 15.6
    endloop
  endfacet
  facet normal -0 0 -1
    outer loop
      vertex -17.3061 20.3976 0
      vertex -19.3736 18.4452 0
      vertex -18.6 21.9227 0
    endloop
  endfacet
  facet normal 0 0 -1
    outer loop
      vertex -19.3736 18.4452 0
      vertex -20.8221 19.8243 0
      vertex -18.6 21.9227 0
    endloop
  endfacet
  facet normal 0.686579 -0.727055 0
    outer loop
      vertex -17.3061 20.3976 15.6
      vertex -19.3736 18.4452 15.6
      vertex -17.3061 20.3976 0
    endloop
  endfacet
  facet normal 0.686579 -0.727055 0
    outer loop
      vertex -19.3736 18.4452 15.6
      vertex -19.3736 18.4452 0
      vertex -17.3061 20.3976 0
    endloop
  endfacet
  facet normal 0 0 1
    outer loop
      vertex -20.8221 19.8243 15.6
      vertex -22.8089 17.5019 15.6
      vertex -19.3736 18.4452 15.6
    endloop
  endfacet
  facet normal -0 0 1
    outer loop
      vertex -22.8089 17.5019 15.6
      vertex -21.2222 16.2844 15.6
      vertex -19.3736 18.4452 15.6
    endloop
  endfacet
  facet normal -0.759875 0.650069 0
    outer loop
      vertex -20.8221 19.8243 0
      vertex -22.8089 17.5019 0
      vertex -20.8221 19.8243 15.6
    endloop
  endfacet
  facet normal -0.759875 0.650069 0
    outer loop
      vertex -22.8089 17.5019 0
      vertex -22.8089 17.5019 15.6
      vertex -20.8221 19.8243 15.6
    endloop
  endfacet
  facet normal -0 0 -1
    outer loop
      vertex -19.3736 18.4452 0
      vertex -21.2222 16.2844 0
      vertex -20.8221 19.8243 0
    endloop
  endfacet
  facet normal 0 0 -1
    outer loop
      vertex -21.2222 16.2844 0
      vertex -22.8089 17.5019 0
      vertex -20.8221 19.8243 0
    endloop
  endfacet
  facet normal 0.759867 -0.650079 0
    outer loop
      vertex -19.3736 18.4452 15.6
      vertex -21.2222 16.2844 15.6
      vertex -19.3736 18.4452 0
    endloop
  endfacet
  facet normal 0.759867 -0.650079 0
    outer loop
      vertex -21.2222 16.2844 15.6
      vertex -21.2222 16.2844 0
      vertex -19.3736 18.4452 0
    endloop
  endfacet
  facet normal 0 0 1
    outer loop
      vertex -22.8089 17.5019 15.6
      vertex -24.538 14.9817 15.6
      vertex -21.2222 16.2844 15.6
    endloop
  endfacet
  facet normal -0 0 1
    outer loop
      vertex -24.538 14.9817 15.6
      vertex -22.831 13.9395 15.6
      vertex -21.2222 16.2844 15.6
    endloop
  endfacet
  facet normal -0.824582 0.565743 0
    outer loop
      vertex -22.8089 17.5019 0
      vertex -24.538 14.9817 0
      vertex -22.8089 17.5019 15.6
    endloop
  endfacet
  facet normal -0.824582 0.565743 0
    outer loop
      vertex -24.538 14.9817 0
      vertex -24.538 14.9817 15.6
      vertex -22.8089 17.5019 15.6
    endloop
  endfacet
  facet normal -0 0 -1
    outer loop
      vertex -21.2222 16.2844 0
      vertex -22.831 13.9395 0
      vertex -22.8089 17.5019 0
    endloop
  endfacet
  facet normal 0 0 -1
    outer loop
      vertex -22.831 13.9395 0
      vertex -24.538 14.9817 0
      vertex -22.8089 17.5019 0
    endloop
  endfacet
  facet normal 0.824586 -0.565736 0
    outer loop
      vertex -21.2222 16.2844 15.6
      vertex -22.831 13.9395 15.6
      vertex -21.2222 16.2844 0
    endloop
  endfacet
  facet normal 0.824586 -0.565736 0
    outer loop
      vertex -22.831 13.9395 15.6
      vertex -22.831 13.9395 0
      vertex -21.2222 16.2844 0
    endloop
  endfacet
  facet normal 0 0 1
    outer loop
      vertex -24.538 14.9817 15.6
      vertex -25.9897 12.2922 15.6
      vertex -22.831 13.9395 15.6
    endloop
  endfacet
  facet normal -0 0 1
    outer loop
      vertex -25.9897 12.2922 15.6
      vertex -24.1817 11.4371 15.6
      vertex -22.831 13.9395 15.6
    endloop
  endfacet
  facet normal -0.879992 0.474989 0
    outer loop
      vertex -24.538 14.9817 0
      vertex -25.9897 12.2922 0
      vertex -24.538 14.9817 15.6
    endloop
  endfacet
  facet normal -0.879992 0.474989 0
    outer loop
      vertex -25.9897 12.2922 0
      vertex -25.9897 12.2922 15.6
      vertex -24.538 14.9817 15.6
    endloop
  endfacet
  facet normal -0 0 -1
    outer loop
      vertex -22.831 13.9395 0
      vertex -24.1817 11.4371 0
      vertex -24.538 14.9817 0
    endloop
  endfacet
  facet normal 0 0 -1
    outer loop
      vertex -24.1817 11.4371 0
      vertex -25.9897 12.2922 0
      vertex -24.538 14.9817 0
    endloop
  endfacet
  facet normal 0.879993 -0.474987 0
    outer loop
      vertex -22.831 13.9395 15.6
      vertex -24.1817 11.4371 15.6
      vertex -22.831 13.9395 0
    endloop
  endfacet
  facet normal 0.879993 -0.474987 0
    outer loop
      vertex -24.1817 11.4371 15.6
      vertex -24.1817 11.4371 0
      vertex -22.831 13.9395 0
    endloop
  endfacet
  facet normal 0 0 1
    outer loop
      vertex -25.9897 12.2922 15.6
      vertex -27.1477 9.4638 15.6
      vertex -24.1817 11.4371 15.6
    endloop
  endfacet
  facet normal -0 0 1
    outer loop
      vertex -27.1477 9.4638 15.6
      vertex -25.2592 8.80545 15.6
      vertex -24.1817 11.4371 15.6
    endloop
  endfacet
  facet normal -0.925441 0.378893 0
    outer loop
      vertex -25.9897 12.2922 0
      vertex -27.1477 9.4638 0
      vertex -25.9897 12.2922 15.6
    endloop
  endfacet
  facet normal -0.925441 0.378893 0
    outer loop
      vertex -27.1477 9.4638 0
      vertex -27.1477 9.4638 15.6
      vertex -25.9897 12.2922 15.6
    endloop
  endfacet
  facet normal -0 0 -1
    outer loop
      vertex -24.1817 11.4371 0
      vertex -25.2592 8.80545 0
      vertex -25.9897 12.2922 0
    endloop
  endfacet
  facet normal 0 0 -1
    outer loop
      vertex -25.2592 8.80545 0
      vertex -27.1477 9.4638 0
      vertex -25.9897 12.2922 0
    endloop
  endfacet
  facet normal 0.925434 -0.378909 0
    outer loop
      vertex -24.1817 11.4371 15.6
      vertex -25.2592 8.80545 15.6
      vertex -24.1817 11.4371 0
    endloop
  endfacet
  facet normal 0.925434 -0.378909 0
    outer loop
      vertex -25.2592 8.80545 15.6
      vertex -25.2592 8.80545 0
      vertex -24.1817 11.4371 0
    endloop
  endfacet
  facet normal 0 0 1
    outer loop
      vertex -27.1477 9.4638 15.6
      vertex -27.999 6.52844 15.6
      vertex -25.2592 8.80545 15.6
    endloop
  endfacet
  facet normal -0 0 1
    outer loop
      vertex -27.999 6.52844 15.6
      vertex -26.0512 6.07429 15.6
      vertex -25.2592 8.80545 15.6
    endloop
  endfacet
  facet normal -0.960425 0.278538 0
    outer loop
      vertex -27.1477 9.4638 0
      vertex -27.999 6.52844 0
      vertex -27.1477 9.4638 15.6
    endloop
  endfacet
  facet normal -0.960425 0.278538 0
    outer loop
      vertex -27.999 6.52844 0
      vertex -27.999 6.52844 15.6
      vertex -27.1477 9.4638 15.6
    endloop
  endfacet
  facet normal -0 0 -1
    outer loop
      vertex -25.2592 8.80545 0
      vertex -26.0512 6.07429 0
      vertex -27.1477 9.4638 0
    endloop
  endfacet
  facet normal 0 0 -1
    outer loop
      vertex -26.0512 6.07429 0
      vertex -27.999 6.52844 0
      vertex -27.1477 9.4638 0
    endloop
  endfacet
  facet normal 0.960433 -0.278513 0
    outer loop
      vertex -25.2592 8.80545 15.6
      vertex -26.0512 6.07429 15.6
      vertex -25.2592 8.80545 0
    endloop
  endfacet
  facet normal 0.960433 -0.278513 0
    outer loop
      vertex -26.0512 6.07429 15.6
      vertex -26.0512 6.07429 0
      vertex -25.2592 8.80545 0
    endloop
  endfacet
  facet normal 0 0 1
    outer loop
      vertex -27.999 6.52844 15.6
      vertex -28.5338 3.51931 15.6
      vertex -26.0512 6.07429 15.6
    endloop
  endfacet
  facet normal -0 0 1
    outer loop
      vertex -28.5338 3.51931 15.6
      vertex -26.5488 3.27449 15.6
      vertex -26.0512 6.07429 15.6
    endloop
  endfacet
  facet normal -0.984571 0.174984 0
    outer loop
      vertex -27.999 6.52844 0
      vertex -28.5338 3.51931 0
      vertex -27.999 6.52844 15.6
    endloop
  endfacet
  facet normal -0.984571 0.174984 0
    outer loop
      vertex -28.5338 3.51931 0
      vertex -28.5338 3.51931 15.6
      vertex -27.999 6.52844 15.6
    endloop
  endfacet
  facet normal -0 0 -1
    outer loop
      vertex -26.0512 6.07429 0
      vertex -26.5488 3.27449 0
      vertex -27.999 6.52844 0
    endloop
  endfacet
  facet normal 0 0 -1
    outer loop
      vertex -26.5488 3.27449 0
      vertex -28.5338 3.51931 0
      vertex -27.999 6.52844 0
    endloop
  endfacet
  facet normal 0.984571 -0.174985 0
    outer loop
      vertex -26.0512 6.07429 15.6
      vertex -26.5488 3.27449 15.6
      vertex -26.0512 6.07429 0
    endloop
  endfacet
  facet normal 0.984571 -0.174985 0
    outer loop
      vertex -26.5488 3.27449 15.6
      vertex -26.5488 3.27449 0
      vertex -26.0512 6.07429 0
    endloop
  endfacet
  facet normal 0 0 1
    outer loop
      vertex -28.5338 3.51931 15.6
      vertex -28.7462 0.4704 15.6
      vertex -26.5488 3.27449 15.6
    endloop
  endfacet
  facet normal -0 0 1
    outer loop
      vertex -28.7462 0.4704 15.6
      vertex -26.7464 0.437676 15.6
      vertex -26.5488 3.27449 15.6
    endloop
  endfacet
  facet normal -0.997582 0.0694958 0
    outer loop
      vertex -28.5338 3.51931 0
      vertex -28.7462 0.4704 0
      vertex -28.5338 3.51931 15.6
    endloop
  endfacet
  facet normal -0.997582 0.0694958 0
    outer loop
      vertex -28.7462 0.4704 0
      vertex -28.7462 0.4704 15.6
      vertex -28.5338 3.51931 15.6
    endloop
  endfacet
  facet normal -0 0 -1
    outer loop
      vertex -26.5488 3.27449 0
      vertex -26.7464 0.437676 0
      vertex -28.5338 3.51931 0
    endloop
  endfacet
  facet normal 0 0 -1
    outer loop
      vertex -26.7464 0.437676 0
      vertex -28.7462 0.4704 0
      vertex -28.5338 3.51931 0
    endloop
  endfacet
  facet normal 0.997583 -0.0694872 0
    outer loop
      vertex -26.5488 3.27449 15.6
      vertex -26.7464 0.437676 15.6
      vertex -26.5488 3.27449 0
    endloop
  endfacet
  facet normal 0.997583 -0.0694872 0
    outer loop
      vertex -26.7464 0.437676 15.6
      vertex -26.7464 0.437676 0
      vertex -26.5488 3.27449 0
    endloop
  endfacet
  facet normal 0 0 1
    outer loop
      vertex -28.7462 0.4704 15.6
      vertex -28.6337 -2.58382 15.6
      vertex -26.7464 0.437676 15.6
    endloop
  endfacet
  facet normal 0 0 1
    outer loop
      vertex -28.6337 -2.58382 15.6
      vertex -26.6418 -2.40408 15.6
      vertex -26.7464 0.437676 15.6
    endloop
  endfacet
  facet normal -0.999322 -0.0368093 0
    outer loop
      vertex -28.7462 0.4704 0
      vertex -28.6337 -2.58382 0
      vertex -28.7462 0.4704 15.6
    endloop
  endfacet
  facet normal -0.999322 -0.0368093 0
    outer loop
      vertex -28.6337 -2.58382 0
      vertex -28.6337 -2.58382 15.6
      vertex -28.7462 0.4704 15.6
    endloop
  endfacet
  facet normal -0 -0 -1
    outer loop
      vertex -26.7464 0.437676 0
      vertex -26.6418 -2.40408 0
      vertex -28.7462 0.4704 0
    endloop
  endfacet
  facet normal -0 0 -1
    outer loop
      vertex -26.6418 -2.40408 0
      vertex -28.6337 -2.58382 0
      vertex -28.7462 0.4704 0
    endloop
  endfacet
  facet normal 0.999323 0.0367833 0
    outer loop
      vertex -26.7464 0.437676 15.6
      vertex -26.6418 -2.40408 15.6
      vertex -26.7464 0.437676 0
    endloop
  endfacet
  facet normal 0.999323 0.0367833 0
    outer loop
      vertex -26.6418 -2.40408 15.6
      vertex -26.6418 -2.40408 0
      vertex -26.7464 0.437676 0
    endloop
  endfacet
  facet normal -0 0 1
    outer loop
      vertex -28.6337 -2.58382 15.6
      vertex -28.1976 -5.60885 15.6
      vertex -26.6418 -2.40408 15.6
    endloop
  endfacet
  facet normal 0 0 1
    outer loop
      vertex -28.1976 -5.60885 15.6
      vertex -26.236 -5.21867 15.6
      vertex -26.6418 -2.40408 15.6
    endloop
  endfacet
  facet normal -0.989768 -0.142689 0
    outer loop
      vertex -28.6337 -2.58382 0
      vertex -28.1976 -5.60885 0
      vertex -28.6337 -2.58382 15.6
    endloop
  endfacet
  facet normal -0.989768 -0.142689 0
    outer loop
      vertex -28.1976 -5.60885 0
      vertex -28.1976 -5.60885 15.6
      vertex -28.6337 -2.58382 15.6
    endloop
  endfacet
  facet normal 0 -0 -1
    outer loop
      vertex -26.6418 -2.40408 0
      vertex -26.236 -5.21867 0
      vertex -28.6337 -2.58382 0
    endloop
  endfacet
  facet normal -0 0 -1
    outer loop
      vertex -26.236 -5.21867 0
      vertex -28.1976 -5.60885 0
      vertex -28.6337 -2.58382 0
    endloop
  endfacet
  facet normal 0.989766 0.142702 0
    outer loop
      vertex -26.6418 -2.40408 15.6
      vertex -26.236 -5.21867 15.6
      vertex -26.6418 -2.40408 0
    endloop
  endfacet
  facet normal 0.989766 0.142702 0
    outer loop
      vertex -26.236 -5.21867 15.6
      vertex -26.236 -5.21867 0
      vertex -26.6418 -2.40408 0
    endloop
  endfacet
  facet normal -0 0 1
    outer loop
      vertex -28.1976 -5.60885 15.6
      vertex -27.4428 -8.57049 15.6
      vertex -26.236 -5.21867 15.6
    endloop
  endfacet
  facet normal 0 0 1
    outer loop
      vertex -27.4428 -8.57049 15.6
      vertex -25.5338 -7.97428 15.6
      vertex -26.236 -5.21867 15.6
    endloop
  endfacet
  facet normal -0.969025 -0.246964 0
    outer loop
      vertex -28.1976 -5.60885 0
      vertex -27.4428 -8.57049 0
      vertex -28.1976 -5.60885 15.6
    endloop
  endfacet
  facet normal -0.969025 -0.246964 0
    outer loop
      vertex -27.4428 -8.57049 0
      vertex -27.4428 -8.57049 15.6
      vertex -28.1976 -5.60885 15.6
    endloop
  endfacet
  facet normal 0 -0 -1
    outer loop
      vertex -26.236 -5.21867 0
      vertex -25.5338 -7.97428 0
      vertex -28.1976 -5.60885 0
    endloop
  endfacet
  facet normal -0 0 -1
    outer loop
      vertex -25.5338 -7.97428 0
      vertex -27.4428 -8.57049 0
      vertex -28.1976 -5.60885 0
    endloop
  endfacet
  facet normal 0.969032 0.246934 0
    outer loop
      vertex -26.236 -5.21867 15.6
      vertex -25.5338 -7.97428 15.6
      vertex -26.236 -5.21867 0
    endloop
  endfacet
  facet normal 0.969032 0.246934 0
    outer loop
      vertex -25.5338 -7.97428 15.6
      vertex -25.5338 -7.97428 0
      vertex -26.236 -5.21867 0
    endloop
  endfacet
  facet normal -0 0 1
    outer loop
      vertex -27.4428 -8.57049 15.6
      vertex -26.378 -11.4353 15.6
      vertex -25.5338 -7.97428 15.6
    endloop
  endfacet
  facet normal 0 0 1
    outer loop
      vertex -26.378 -11.4353 15.6
      vertex -24.543 -10.6398 15.6
      vertex -25.5338 -7.97428 15.6
    endloop
  endfacet
  facet normal -0.937348 -0.348396 0
    outer loop
      vertex -27.4428 -8.57049 0
      vertex -26.378 -11.4353 0
      vertex -27.4428 -8.57049 15.6
    endloop
  endfacet
  facet normal -0.937348 -0.348396 0
    outer loop
      vertex -26.378 -11.4353 0
      vertex -26.378 -11.4353 15.6
      vertex -27.4428 -8.57049 15.6
    endloop
  endfacet
  facet normal 0 -0 -1
    outer loop
      vertex -25.5338 -7.97428 0
      vertex -24.543 -10.6398 0
      vertex -27.4428 -8.57049 0
    endloop
  endfacet
  facet normal -0 0 -1
    outer loop
      vertex -24.543 -10.6398 0
      vertex -26.378 -11.4353 0
      vertex -27.4428 -8.57049 0
    endloop
  endfacet
  facet normal 0.937339 0.348418 0
    outer loop
      vertex -25.5338 -7.97428 15.6
      vertex -24.543 -10.6398 15.6
      vertex -25.5338 -7.97428 0
    endloop
  endfacet
  facet normal 0.937339 0.348418 0
    outer loop
      vertex -24.543 -10.6398 15.6
      vertex -24.543 -10.6398 0
      vertex -25.5338 -7.97428 0
    endloop
  endfacet
  facet normal -0 0 1
    outer loop
      vertex -26.378 -11.4353 15.6
      vertex -25.015 -14.1708 15.6
      vertex -24.543 -10.6398 15.6
    endloop
  endfacet
  facet normal 0 0 1
    outer loop
      vertex -25.015 -14.1708 15.6
      vertex -23.2748 -13.185 15.6
      vertex -24.543 -10.6398 15.6
    endloop
  endfacet
  facet normal -0.895048 -0.44597 0
    outer loop
      vertex -26.378 -11.4353 0
      vertex -25.015 -14.1708 0
      vertex -26.378 -11.4353 15.6
    endloop
  endfacet
  facet normal -0.895048 -0.44597 0
    outer loop
      vertex -25.015 -14.1708 0
      vertex -25.015 -14.1708 15.6
      vertex -26.378 -11.4353 15.6
    endloop
  endfacet
  facet normal 0 -0 -1
    outer loop
      vertex -24.543 -10.6398 0
      vertex -23.2748 -13.185 0
      vertex -26.378 -11.4353 0
    endloop
  endfacet
  facet normal -0 0 -1
    outer loop
      vertex -23.2748 -13.185 0
      vertex -25.015 -14.1708 0
      vertex -26.378 -11.4353 0
    endloop
  endfacet
  facet normal 0.895045 0.445975 0
    outer loop
      vertex -24.543 -10.6398 15.6
      vertex -23.2748 -13.185 15.6
      vertex -24.543 -10.6398 0
    endloop
  endfacet
  facet normal 0.895045 0.445975 0
    outer loop
      vertex -23.2748 -13.185 15.6
      vertex -23.2748 -13.185 0
      vertex -24.543 -10.6398 0
    endloop
  endfacet
  facet normal -0 0 1
    outer loop
      vertex -25.015 -14.1708 15.6
      vertex -23.3693 -16.7462 15.6
      vertex -23.2748 -13.185 15.6
    endloop
  endfacet
  facet normal 0 0 1
    outer loop
      vertex -23.3693 -16.7462 15.6
      vertex -21.7436 -15.5813 15.6
      vertex -23.2748 -13.185 15.6
    endloop
  endfacet
  facet normal -0.842651 -0.53846 0
    outer loop
      vertex -25.015 -14.1708 0
      vertex -23.3693 -16.7462 0
      vertex -25.015 -14.1708 15.6
    endloop
  endfacet
  facet normal -0.842651 -0.53846 0
    outer loop
      vertex -23.3693 -16.7462 0
      vertex -23.3693 -16.7462 15.6
      vertex -25.015 -14.1708 15.6
    endloop
  endfacet
  facet normal 0 -0 -1
    outer loop
      vertex -23.2748 -13.185 0
      vertex -21.7436 -15.5813 0
      vertex -25.015 -14.1708 0
    endloop
  endfacet
  facet normal -0 0 -1
    outer loop
      vertex -21.7436 -15.5813 0
      vertex -23.3693 -16.7462 0
      vertex -25.015 -14.1708 0
    endloop
  endfacet
  facet normal 0.842659 0.538447 0
    outer loop
      vertex -23.2748 -13.185 15.6
      vertex -21.7436 -15.5813 15.6
      vertex -23.2748 -13.185 0
    endloop
  endfacet
  facet normal 0.842659 0.538447 0
    outer loop
      vertex -21.7436 -15.5813 15.6
      vertex -21.7436 -15.5813 0
      vertex -23.2748 -13.185 0
    endloop
  endfacet
  facet normal -0 0 1
    outer loop
      vertex -23.3693 -16.7462 15.6
      vertex -21.4596 -19.1324 15.6
      vertex -21.7436 -15.5813 15.6
    endloop
  endfacet
  facet normal 0 -0 1
    outer loop
      vertex -21.4596 -19.1324 15.6
      vertex -19.9667 -17.8014 15.6
      vertex -21.7436 -15.5813 15.6
    endloop
  endfacet
  facet normal -0.780751 -0.624843 0
    outer loop
      vertex -23.3693 -16.7462 0
      vertex -21.4596 -19.1324 0
      vertex -23.3693 -16.7462 15.6
    endloop
  endfacet
  facet normal -0.780751 -0.624843 0
    outer loop
      vertex -21.4596 -19.1324 0
      vertex -21.4596 -19.1324 15.6
      vertex -23.3693 -16.7462 15.6
    endloop
  endfacet
  facet normal 0 -0 -1
    outer loop
      vertex -21.7436 -15.5813 0
      vertex -19.9667 -17.8014 0
      vertex -23.3693 -16.7462 0
    endloop
  endfacet
  facet normal -0 0 -1
    outer loop
      vertex -19.9667 -17.8014 0
      vertex -21.4596 -19.1324 0
      vertex -23.3693 -16.7462 0
    endloop
  endfacet
  facet normal 0.780728 0.624871 0
    outer loop
      vertex -21.7436 -15.5813 15.6
      vertex -19.9667 -17.8014 15.6
      vertex -21.7436 -15.5813 0
    endloop
  endfacet
  facet normal 0.780728 0.624871 0
    outer loop
      vertex -19.9667 -17.8014 15.6
      vertex -19.9667 -17.8014 0
      vertex -21.7436 -15.5813 0
    endloop
  endfacet
  facet normal -0 0 1
    outer loop
      vertex -21.4596 -19.1324 15.6
      vertex -19.3073 -21.3023 15.6
      vertex -19.9667 -17.8014 15.6
    endloop
  endfacet
  facet normal 0 -0 1
    outer loop
      vertex -19.3073 -21.3023 15.6
      vertex -17.9642 -19.8204 15.6
      vertex -19.9667 -17.8014 15.6
    endloop
  endfacet
  facet normal -0.70998 -0.704222 0
    outer loop
      vertex -21.4596 -19.1324 0
      vertex -19.3073 -21.3023 0
      vertex -21.4596 -19.1324 15.6
    endloop
  endfacet
  facet normal -0.70998 -0.704222 0
    outer loop
      vertex -19.3073 -21.3023 0
      vertex -19.3073 -21.3023 15.6
      vertex -21.4596 -19.1324 15.6
    endloop
  endfacet
  facet normal 0 -0 -1
    outer loop
      vertex -19.9667 -17.8014 0
      vertex -17.9642 -19.8204 0
      vertex -21.4596 -19.1324 0
    endloop
  endfacet
  facet normal -0 0 -1
    outer loop
      vertex -17.9642 -19.8204 0
      vertex -19.3073 -21.3023 0
      vertex -21.4596 -19.1324 0
    endloop
  endfacet
  facet normal 0.710002 0.7042 0
    outer loop
      vertex -19.9667 -17.8014 15.6
      vertex -17.9642 -19.8204 15.6
      vertex -19.9667 -17.8014 0
    endloop
  endfacet
  facet normal 0.710002 0.7042 0
    outer loop
      vertex -17.9642 -19.8204 15.6
      vertex -17.9642 -19.8204 0
      vertex -19.9667 -17.8014 0
    endloop
  endfacet
  facet normal -0 0 1
    outer loop
      vertex -19.3073 -21.3023 15.6
      vertex -16.9369 -23.2316 15.6
      vertex -17.9642 -19.8204 15.6
    endloop
  endfacet
  facet normal 0 -0 1
    outer loop
      vertex -16.9369 -23.2316 15.6
      vertex -15.7586 -21.6154 15.6
      vertex -17.9642 -19.8204 15.6
    endloop
  endfacet
  facet normal -0.631253 -0.775577 0
    outer loop
      vertex -19.3073 -21.3023 0
      vertex -16.9369 -23.2316 0
      vertex -19.3073 -21.3023 15.6
    endloop
  endfacet
  facet normal -0.631253 -0.775577 0
    outer loop
      vertex -16.9369 -23.2316 0
      vertex -16.9369 -23.2316 15.6
      vertex -19.3073 -21.3023 15.6
    endloop
  endfacet
  facet normal 0 -0 -1
    outer loop
      vertex -17.9642 -19.8204 0
      vertex -15.7586 -21.6154 0
      vertex -19.3073 -21.3023 0
    endloop
  endfacet
  facet normal -0 0 -1
    outer loop
      vertex -15.7586 -21.6154 0
      vertex -16.9369 -23.2316 0
      vertex -19.3073 -21.3023 0
    endloop
  endfacet
  facet normal 0.631217 0.775606 0
    outer loop
      vertex -17.9642 -19.8204 15.6
      vertex -15.7586 -21.6154 15.6
      vertex -17.9642 -19.8204 0
    endloop
  endfacet
  facet normal 0.631217 0.775606 0
    outer loop
      vertex -15.7586 -21.6154 15.6
      vertex -15.7586 -21.6154 0
      vertex -17.9642 -19.8204 0
    endloop
  endfacet
  facet normal -0 0 1
    outer loop
      vertex -16.9369 -23.2316 15.6
      vertex -14.375 -24.8982 15.6
      vertex -15.7586 -21.6154 15.6
    endloop
  endfacet
  facet normal 0 -0 1
    outer loop
      vertex -14.375 -24.8982 15.6
      vertex -13.375 -23.1662 15.6
      vertex -15.7586 -21.6154 15.6
    endloop
  endfacet
  facet normal -0.545302 -0.838239 0
    outer loop
      vertex -16.9369 -23.2316 0
      vertex -14.375 -24.8982 0
      vertex -16.9369 -23.2316 15.6
    endloop
  endfacet
  facet normal -0.545302 -0.838239 0
    outer loop
      vertex -14.375 -24.8982 0
      vertex -14.375 -24.8982 15.6
      vertex -16.9369 -23.2316 15.6
    endloop
  endfacet
  facet normal 0 -0 -1
    outer loop
      vertex -15.7586 -21.6154 0
      vertex -13.375 -23.1662 0
      vertex -16.9369 -23.2316 0
    endloop
  endfacet
  facet normal 0 0 -1
    outer loop
      vertex -13.375 -23.1662 0
      vertex -14.375 -24.8982 0
      vertex -16.9369 -23.2316 0
    endloop
  endfacet
  facet normal 0.545349 0.838209 0
    outer loop
      vertex -15.7586 -21.6154 15.6
      vertex -13.375 -23.1662 15.6
      vertex -15.7586 -21.6154 0
    endloop
  endfacet
  facet normal 0.545349 0.838209 0
    outer loop
      vertex -13.375 -23.1662 15.6
      vertex -13.375 -23.1662 0
      vertex -15.7586 -21.6154 0
    endloop
  endfacet
endsolid OpenSCAD_Model
